<?xml version="1.0" encoding="UTF-8"?>
<svg width="256" height="256" viewBox="0 0 256 256" fill="none" xmlns="http://www.w3.org/2000/svg">
  <defs>
    <!-- Clip everything to a perfect circle to avoid torn edges -->
    <clipPath id="ballClip">
      <circle cx="128" cy="128" r="120"/>
    </clipPath>
    <!-- Depth effects -->
    <radialGradient id="shadow" cx="50%" cy="45%" r="60%">
      <stop offset="60%" stop-color="rgba(0,0,0,0)"/>
      <stop offset="100%" stop-color="rgba(0,0,0,0.18)"/>
    </radialGradient>
    <radialGradient id="highlight" cx="38%" cy="35%" r="38%">
      <stop offset="0%" stop-color="rgba(255,255,255,0.35)"/>
      <stop offset="100%" stop-color="rgba(255,255,255,0)"/>
    </radialGradient>
  </defs>

  <!-- Ball outline -->
  <circle cx="128" cy="128" r="120" fill="#F7F7F7" stroke="#D0D0D0" stroke-width="4"/>

  <!-- Panels (clipped to circle) -->
  <g clip-path="url(#ballClip)">
    <!-- Yellow panels -->
    <path d="M18 132c4-55 52-100 110-100 25 0 49 8 68 21 7 5 13 11 19 17-27 5-48 13-65 23-28 18-50 43-68 75-26-5-52-15-64-36z" fill="#FFC107"/>
    <path d="M238 124c-4 55-52 100-110 100-28 0-59-12-84-33 27-4 50-12 68-25 32-23 55-53 70-92 28 9 54 24 56 50z" fill="#FFD54F"/>

    <!-- Blue panels -->
    <path d="M50 204c20 16 46 26 72 26 42 0 80-24 98-58-22-9-40-14-60-16-30-2-58 3-88 21-8 5-15 14-22 27z" fill="#1976D2"/>
    <path d="M206 58c-20-16-46-26-72-26-38 0-72 18-92 47 22 3 40 6 58 14 27 12 47 31 62 60 12-9 25-26 39-48 6-10 3-28 1-47z" fill="#0D47A1"/>

    <!-- Seams on top (non-overlapping, rounded) -->
    <g stroke="#FFFFFF" stroke-width="7" stroke-linecap="round" opacity="0.95">
      <path d="M34 94c30 2 52 7 70 16 34 17 58 42 74 78"/>
      <path d="M222 162c-30-2-52-7-70-16-34-17-58-42-74-78"/>
      <path d="M56 198c13-19 26-33 42-43 33-21 76-27 124-10"/>
      <path d="M200 58c-13 19-26 33-42 43-33 21-76 27-124 10"/>
    </g>

    <!-- Subtle seam shadow for separation -->
    <g stroke="#B0BEC5" stroke-width="2" opacity="0.6">
      <path d="M34 94c30 2 52 7 70 16 34 17 58 42 74 78"/>
      <path d="M222 162c-30-2-52-7-70-16-34-17-58-42-74-78"/>
      <path d="M56 198c13-19 26-33 42-43 33-21 76-27 124-10"/>
      <path d="M200 58c-13 19-26 33-42 43-33 21-76 27-124 10"/>
    </g>

    <!-- Lighting -->
    <circle cx="112" cy="92" r="62" fill="url(#highlight)"/>
    <circle cx="128" cy="128" r="120" fill="url(#shadow)"/>
  </g>
</svg>
